<svg xmlns="http://www.w3.org/2000/svg" fill="none" viewBox="0 0 281 168">
  <path fill="#f5f5f4" fill-rule="evenodd" d="M27.825 12.265 16.091 24.03v64.308l-8.045 7.264L0 102.867l8.274 8.316c7.792 7.834 8.521 8.317 12.545 8.317 3.988 0 4.272.182 4.272 2.735 0 2.156 2.483 5.225 11.734 14.5L48.56 148.5h13.993l9.268 9.229 9.268 9.229 8.272-8.229 8.272-8.229h37.849l2.828-2.71 2.829-2.71 11.245 11.213 11.245 11.213 8.459-8.503 8.459-8.503h50.074l12.235-12.264 12.235-12.265v-25.877l4.013 3.918 4.012 3.919 8.488-8.444 8.487-8.443V40.971l-12.993-12.964-12.992-12.964-6.51 6.453-6.51 6.452-7.978-7.931-7.977-7.93-2.825 2.707-2.824 2.706H165.7l-2.804 2.687-2.805 2.687V5.03l-12.5 12.47-12.5 12.47v-3.897c0-3.619-.783-4.689-10.972-14.985L113.146 0l-9.027 8.979c-5.239 5.211-9.028 9.801-9.028 10.937 0 1.771-.268 1.701-2.805-.729L89.482 16.5H56.544l-7.953-8c-4.374-4.4-8.196-8-8.492-8-.297 0-5.82 5.294-12.274 11.765Zm20.266 40.162v37.927l-8.389 8.619-8.39 8.619-7.273-.296-7.274-.296 7.663-8.14 7.663-8.139V30.044l7.727-7.772c4.249-4.275 7.849-7.772 8-7.772.15 0 .273 17.067.273 37.927Zm64.163-34.188c.185.418 3.15 3.168 6.587 6.11l6.25 5.349v13.401c0 7.371.33 13.401.734 13.401.403 0 5.578-4.83 11.5-10.733l10.766-10.733v21.997l-11.996 11.965-11.996 11.965-8.004-7.957-8.004-7.957V40.238c0-24.122.053-24.78 1.913-23.785 1.052.563 2.064 1.367 2.25 1.786ZM94.82 38.728l8.271 8.228V81.5h-33.63l-8.685-8.744-8.685-8.744V30.5h34.458l8.271 8.228Zm106.271-6.639c0 .323-3.255 3.698-7.234 7.5l-7.234 6.911h-17.532v10h9.416l-4.39 4.474-4.391 4.473 15.933.277 15.932.276-7.73 7.75-7.73 7.75h-34.04V47.855l8.378-8.178 8.378-8.177h16.122c8.867 0 16.122.265 16.122.589Zm33.601 11.161L246.591 55l.287-12 .286-12 7.964 8.42 7.963 8.42v50.113l-7.973-7.926-7.973-7.927-.277-13.472-.277-13.473-6.1 6.103-6.101 6.103-5.868-5.931c-3.228-3.261-6.445-5.93-7.15-5.93-.969 0-1.281 2.859-1.281 11.723v11.723l-7-6.946-7-6.946V47.9l7.736-8.2c4.255-4.51 8.013-8.2 8.351-8.2.338 0 5.969 5.287 12.514 11.75ZM69.503 47.417c-.227.229-.412 4.391-.412 9.25V65.5h18V47.647l-8.588-.324c-4.723-.177-8.773-.135-9 .094Zm169.588 46.814v24.731l-9.23 9.269-9.23 9.269h-33.54v-34.542l8.825-8.783 8.824-8.784 7.176 7.629c3.946 4.196 7.175 8.045 7.175 8.554 0 .509-3.375.926-7.5.926h-7.5v17h18V85.044l7.727-7.772c4.249-4.275 8.074-7.772 8.5-7.772.425 0 .773 11.129.773 24.731Zm-145 17.073v25.805l-8.25 8.217-8.25 8.218-.267-26.022-.266-26.022-8.234-.015-8.233-.015 8.117-7.985 8.117-7.985h17.266v25.804Zm45.5-17.804-7.953 8h-17.547v11h7.406l-3.703 3.792c-2.037 2.086-3.703 4.111-3.703 4.5 0 .389 7.301.708 16.225.708h16.225l-7.45 7.5-7.45 7.5h-34.55v-33.423l9.25-8.742 9.25-8.741 15.977-.047 15.976-.047-7.953 8Zm-81.5 17c0 12.65-.349 23-.775 23-.426 0-4.026-3.273-8-7.274l-7.225-7.273v-16.906l7.225-7.273c3.974-4.001 7.574-7.274 8-7.274.426 0 .775 10.35.775 23Zm103.228-15.273 7.772 7.726v24.774c0 13.625-.328 24.773-.728 24.773-.4 0-4.225-3.477-8.5-7.727l-7.772-7.726v-24.774c0-13.625.328-24.773.728-24.773.4 0 4.225 3.477 8.5 7.727Zm19.234 1.194 4.963 5.079h-15.425V87.364l2.75 1.989c1.512 1.093 4.983 4.274 7.712 7.068Z" clip-rule="evenodd"/>
</svg>